<svg version="1.1" xmlns="http://www.w3.org/2000/svg" xmlns:xlink="http://www.w3.org/1999/xlink" width="31.47984" height="43.91666" viewBox="0,0,31.47984,43.91666"><defs><radialGradient cx="243.40225" cy="169.81929" r="8.01724" gradientUnits="userSpaceOnUse" id="color-1"><stop offset="0" stop-color="#ffffff" stop-opacity="0.39608"/><stop offset="1" stop-color="#e68b4b"/></radialGradient></defs><g transform="translate(-221.91379,-154.24856)"><g data-paper-data="{&quot;isPaintingLayer&quot;:true}" fill-rule="nonzero" stroke-linejoin="miter" stroke-miterlimit="10" stroke-dasharray="" stroke-dashoffset="0" style="mix-blend-mode: normal"><path d="M252.91379,176.20689c0,12.12725 -6.93959,21.95833 -15.5,21.95833c-8.56041,0 -15.5,-9.83108 -15.5,-21.95833c0,-12.12725 6.93959,-21.95833 15.5,-21.95833c8.56041,0 15.5,9.83108 15.5,21.95833z" fill="#e68b4b" stroke="none" stroke-width="0" stroke-linecap="butt"/><path d="M251.41949,169.81929c0,6.14178 -3.58945,11.12069 -8.01724,11.12069c-4.4278,0 -8.01724,-4.97891 -8.01724,-11.12069c0,-6.14178 3.58945,-11.12069 8.01724,-11.12069c4.4278,0 8.01724,4.97891 8.01724,11.12069z" fill="url(#color-1)" stroke="none" stroke-width="0" stroke-linecap="butt"/><path d="M240.55742,187.66411l-7.93103,-11.37931" fill="none" stroke="#693800" stroke-width="0.5" stroke-linecap="round"/><path d="M232.28156,158.87101l4.31034,21.72414l-1.37931,1.03448l-3.7931,10.34483" fill="none" stroke="#693800" stroke-width="0.5" stroke-linecap="round"/><path d="M237.62639,183.18136l15.51724,-4.48276" fill="none" stroke="#693800" stroke-width="0.5" stroke-linecap="round"/><path d="M248.31604,179.90549l-8.7931,-20.68966" fill="none" stroke="#693800" stroke-width="0.5" stroke-linecap="round"/><path d="M243.48846,167.66411l-18.27586,-5.17241" fill="none" stroke="#693800" stroke-width="0.5" stroke-linecap="round"/><path d="M228.48846,163.52618l-5.86207,15.86207" fill="none" stroke="#693800" stroke-width="0.5" stroke-linecap="round"/></g></g></svg>