<svg version="1.1" xmlns="http://www.w3.org/2000/svg" xmlns:xlink="http://www.w3.org/1999/xlink" width="503.79345" height="382.5" viewBox="0,0,503.79345,382.5"><g transform="translate(16.04345,12.75)"><g data-paper-data="{&quot;isPaintingLayer&quot;:true}" fill-rule="nonzero" stroke-linejoin="miter" stroke-miterlimit="10" stroke-dasharray="" stroke-dashoffset="0" style="mix-blend-mode: normal"><path d="M-15.79345,369.5v-382h503.29345v382z" fill="#1b991d" stroke="#0cc100" stroke-width="0.5" stroke-linecap="butt"/><path d="M412.49999,295.5v-33" fill="none" stroke="none" stroke-width="0" stroke-linecap="round"/><path d="M368.35246,253.7459l-2.86885,13.93443" fill="none" stroke="none" stroke-width="0" stroke-linecap="round"/><path d="M357.28689,261.94263l3.68853,-24.18033" fill="none" stroke="none" stroke-width="0" stroke-linecap="round"/><path d="M360.97541,234.48361l4.91803,-31.14754" fill="none" stroke="none" stroke-width="0" stroke-linecap="round"/><path d="M378.18852,260.71312l-0.40984,13.52459" fill="none" stroke="#0cc100" stroke-width="0.5" stroke-linecap="round"/><path d="M380.2377,274.64754l5.32787,-13.52459" fill="none" stroke="#0cc100" stroke-width="0.5" stroke-linecap="round"/><path d="M366.30328,259.89344l5.73771,11.47541" fill="none" stroke="#0cc100" stroke-width="0.5" stroke-linecap="round"/><path d="M364.25409,275.46722l-9.83607,-12.70492" fill="none" stroke="#0cc100" stroke-width="0.5" stroke-linecap="round"/><path d="M385.56558,277.10656l7.78688,-20.08197" fill="none" stroke="#0cc100" stroke-width="0.5" stroke-linecap="round"/><path d="M368.76229,275.87705l-5.73771,-20.08197" fill="none" stroke="#0cc100" stroke-width="0.5" stroke-linecap="round"/><path d="M201.5,235.5v-33" fill="none" stroke="none" stroke-width="0" stroke-linecap="round"/><path d="M154.4836,207.68033l2.86885,-13.93443" fill="none" stroke="none" stroke-width="0" stroke-linecap="round"/><path d="M146.28688,201.94263l3.68852,-24.18033" fill="none" stroke="none" stroke-width="0" stroke-linecap="round"/><path d="M154.89344,143.33607l-4.91804,31.14754" fill="none" stroke="none" stroke-width="0" stroke-linecap="round"/><path d="M167.18852,200.71312l-0.40983,13.52459" fill="none" stroke="#0cc100" stroke-width="0.5" stroke-linecap="round"/><path d="M174.56557,201.12295l-5.32787,13.52459" fill="none" stroke="#0cc100" stroke-width="0.5" stroke-linecap="round"/><path d="M161.04098,211.36885l-5.73771,-11.4754" fill="none" stroke="#0cc100" stroke-width="0.5" stroke-linecap="round"/><path d="M153.25409,215.46722l-9.83606,-12.70492" fill="none" stroke="#0cc100" stroke-width="0.5" stroke-linecap="round"/><path d="M182.35247,197.0246l-7.78689,20.08196" fill="none" stroke="#0cc100" stroke-width="0.5" stroke-linecap="round"/><path d="M157.7623,215.87705l-5.73771,-20.08197" fill="none" stroke="#0cc100" stroke-width="0.5" stroke-linecap="round"/><path d="M337.49999,139.5v-33" fill="none" stroke="none" stroke-width="0" stroke-linecap="round"/><path d="M290.4836,111.68033l2.86885,-13.93443" fill="none" stroke="none" stroke-width="0" stroke-linecap="round"/><path d="M282.28689,105.94263l3.68853,-24.18033" fill="none" stroke="none" stroke-width="0" stroke-linecap="round"/><path d="M290.89343,47.33607l-4.91803,31.14754" fill="none" stroke="none" stroke-width="0" stroke-linecap="round"/><path d="M302.77868,118.23771l0.40984,-13.52459" fill="none" stroke="#0cc100" stroke-width="0.5" stroke-linecap="round"/><path d="M310.56557,105.12295l-5.32787,13.52459" fill="none" stroke="#0cc100" stroke-width="0.5" stroke-linecap="round"/><path d="M297.04097,115.36885l-5.73771,-11.4754" fill="none" stroke="#0cc100" stroke-width="0.5" stroke-linecap="round"/><path d="M289.25409,119.46722l-9.83607,-12.70492" fill="none" stroke="#0cc100" stroke-width="0.5" stroke-linecap="round"/><path d="M318.35245,101.0246l-7.78688,20.08196" fill="none" stroke="#0cc100" stroke-width="0.5" stroke-linecap="round"/><path d="M293.76229,119.87705l-5.73771,-20.08197" fill="none" stroke="#0cc100" stroke-width="0.5" stroke-linecap="round"/><path d="M264.49999,323.5v-33" fill="none" stroke="none" stroke-width="0" stroke-linecap="round"/><path d="M217.48361,295.68033l2.86885,-13.93443" fill="none" stroke="none" stroke-width="0" stroke-linecap="round"/><path d="M209.28689,289.94263l3.68852,-24.18033" fill="none" stroke="none" stroke-width="0" stroke-linecap="round"/><path d="M212.97541,262.48361l4.91804,-31.14754" fill="none" stroke="none" stroke-width="0" stroke-linecap="round"/><path d="M229.77869,302.23771l0.40983,-13.52459" fill="none" stroke="#0cc100" stroke-width="0.5" stroke-linecap="round"/><path d="M237.56557,289.12295l-5.32787,13.52459" fill="none" stroke="#0cc100" stroke-width="0.5" stroke-linecap="round"/><path d="M218.30328,287.89344l5.73771,11.47541" fill="none" stroke="#0cc100" stroke-width="0.5" stroke-linecap="round"/><path d="M216.25409,303.46722l-9.83606,-12.70492" fill="none" stroke="#0cc100" stroke-width="0.5" stroke-linecap="round"/><path d="M237.56558,305.10656l7.78689,-20.08197" fill="none" stroke="#0cc100" stroke-width="0.5" stroke-linecap="round"/><path d="M215.02459,283.79508l5.73771,20.08197" fill="none" stroke="#0cc100" stroke-width="0.5" stroke-linecap="round"/><path d="M151.49999,147.5v-33" fill="none" stroke="none" stroke-width="0" stroke-linecap="round"/><path d="M107.35245,105.7459l-2.86885,13.93443" fill="none" stroke="none" stroke-width="0" stroke-linecap="round"/><path d="M99.9754,89.7623l-3.68852,24.18033" fill="none" stroke="none" stroke-width="0" stroke-linecap="round"/><path d="M99.9754,86.48361l4.91804,-31.14754" fill="none" stroke="none" stroke-width="0" stroke-linecap="round"/><path d="M117.18852,112.71312l-0.40984,13.52459" fill="none" stroke="#0cc100" stroke-width="0.5" stroke-linecap="round"/><path d="M119.2377,126.64754l5.32787,-13.52459" fill="none" stroke="#0cc100" stroke-width="0.5" stroke-linecap="round"/><path d="M105.30327,111.89345l5.73771,11.4754" fill="none" stroke="#0cc100" stroke-width="0.5" stroke-linecap="round"/><path d="M103.25409,127.46722l-9.83606,-12.70492" fill="none" stroke="#0cc100" stroke-width="0.5" stroke-linecap="round"/><path d="M124.56557,129.10655l7.78689,-20.08196" fill="none" stroke="#0cc100" stroke-width="0.5" stroke-linecap="round"/><path d="M102.02459,107.79508l5.7377,20.08197" fill="none" stroke="#0cc100" stroke-width="0.5" stroke-linecap="round"/><path d="M283.49999,102.5v-33" fill="none" stroke="none" stroke-width="0" stroke-linecap="round"/><path d="M236.48361,74.68033l2.86885,-13.93443" fill="none" stroke="none" stroke-width="0" stroke-linecap="round"/><path d="M228.28689,68.94263l3.68853,-24.18033" fill="none" stroke="none" stroke-width="0" stroke-linecap="round"/><path d="M231.97541,41.4836l4.91803,-31.14754" fill="none" stroke="none" stroke-width="0" stroke-linecap="round"/><path d="M248.77869,81.2377l0.40984,-13.52459" fill="none" stroke="#0cc100" stroke-width="0.5" stroke-linecap="round"/><path d="M256.56557,68.12295l-5.32787,13.52459" fill="none" stroke="#0cc100" stroke-width="0.5" stroke-linecap="round"/><path d="M237.30328,66.89345l5.7377,11.4754" fill="none" stroke="#0cc100" stroke-width="0.5" stroke-linecap="round"/><path d="M235.25409,82.46722l-9.83606,-12.70492" fill="none" stroke="#0cc100" stroke-width="0.5" stroke-linecap="round"/><path d="M256.56556,84.10656l7.78689,-20.08197" fill="none" stroke="#0cc100" stroke-width="0.5" stroke-linecap="round"/><path d="M239.7623,82.87705l-5.73771,-20.08197" fill="none" stroke="#0cc100" stroke-width="0.5" stroke-linecap="round"/><path d="M65.49999,68.5v33" fill="none" stroke="none" stroke-width="0" stroke-linecap="round"/><path d="M18.48359,73.68033l2.86885,-13.93443" fill="none" stroke="none" stroke-width="0" stroke-linecap="round"/><path d="M10.28687,67.94262l3.68852,-24.18033" fill="none" stroke="none" stroke-width="0" stroke-linecap="round"/><path d="M18.89344,9.33606l-4.91804,31.14754" fill="none" stroke="none" stroke-width="0" stroke-linecap="round"/><path d="M30.77868,80.23771l0.40984,-13.52459" fill="none" stroke="#0cc100" stroke-width="0.5" stroke-linecap="round"/><path d="M38.56557,67.12295l-5.32787,13.52459" fill="none" stroke="#0cc100" stroke-width="0.5" stroke-linecap="round"/><path d="M25.04098,77.36885l-5.73771,-11.47541" fill="none" stroke="#0cc100" stroke-width="0.5" stroke-linecap="round"/><path d="M7.41803,68.7623l9.83606,12.70492" fill="none" stroke="#0cc100" stroke-width="0.5" stroke-linecap="round"/><path d="M46.35246,63.02459l-7.78689,20.08196" fill="none" stroke="#0cc100" stroke-width="0.5" stroke-linecap="round"/><path d="M21.76228,81.87705l-5.7377,-20.08197" fill="none" stroke="#0cc100" stroke-width="0.5" stroke-linecap="round"/><path d="M71.49999,224.5v-33" fill="none" stroke="none" stroke-width="0" stroke-linecap="round"/><path d="M24.48359,196.68033l2.86885,-13.93443" fill="none" stroke="none" stroke-width="0" stroke-linecap="round"/><path d="M19.97539,166.7623l-3.68852,24.18033" fill="none" stroke="none" stroke-width="0" stroke-linecap="round"/><path d="M19.9754,163.48361l4.91804,-31.14754" fill="none" stroke="none" stroke-width="0" stroke-linecap="round"/><path d="M37.18852,189.71312l-0.40984,13.52459" fill="none" stroke="#0cc100" stroke-width="0.5" stroke-linecap="round"/><path d="M56.56557,199.12295l-5.32787,13.52459" fill="none" stroke="#0cc100" stroke-width="0.5" stroke-linecap="round"/><path d="M31.04098,200.36885l-5.73771,-11.47541" fill="none" stroke="#0cc100" stroke-width="0.5" stroke-linecap="round"/><path d="M13.41803,191.7623l9.83606,12.70492" fill="none" stroke="#0cc100" stroke-width="0.5" stroke-linecap="round"/><path d="M44.56557,206.10656l7.78689,-20.08196" fill="none" stroke="#0cc100" stroke-width="0.5" stroke-linecap="round"/><path d="M27.76228,204.87705l-5.7377,-20.08197" fill="none" stroke="#0cc100" stroke-width="0.5" stroke-linecap="round"/><path d="M171.5,167.5v-33" fill="none" stroke="none" stroke-width="0" stroke-linecap="round"/><path d="M124.4836,139.68033l2.86885,-13.93443" fill="none" stroke="none" stroke-width="0" stroke-linecap="round"/><path d="M119.9754,109.7623l-3.68852,24.18033" fill="none" stroke="none" stroke-width="0" stroke-linecap="round"/><path d="M119.9754,106.48361l4.91804,-31.14754" fill="none" stroke="none" stroke-width="0" stroke-linecap="round"/><path d="M137.18853,132.71312l-0.40984,13.52459" fill="none" stroke="#0cc100" stroke-width="0.5" stroke-linecap="round"/><path d="M139.2377,146.64754l5.32787,-13.52459" fill="none" stroke="#0cc100" stroke-width="0.5" stroke-linecap="round"/><path d="M131.04098,143.36885l-5.73771,-11.47541" fill="none" stroke="#0cc100" stroke-width="0.5" stroke-linecap="round"/><path d="M123.25409,147.46722l-9.83606,-12.70492" fill="none" stroke="#0cc100" stroke-width="0.5" stroke-linecap="round"/><path d="M152.35247,129.02459l-7.78689,20.08196" fill="none" stroke="#0cc100" stroke-width="0.5" stroke-linecap="round"/><path d="M127.76229,147.87705l-5.7377,-20.08197" fill="none" stroke="#0cc100" stroke-width="0.5" stroke-linecap="round"/></g></g></svg>